<mxfile host="Electron" agent="Mozilla/5.0 (X11; Linux x86_64) AppleWebKit/537.36 (KHTML, like Gecko) draw.io/25.0.2 Chrome/128.0.6613.186 Electron/32.2.5 Safari/537.36" version="25.0.2">
  <diagram name="Page-1" id="-H_mtQnk-PTXWXPvYvuk">
    <mxGraphModel dx="1122" dy="483" grid="1" gridSize="10" guides="1" tooltips="1" connect="1" arrows="1" fold="1" page="1" pageScale="1" pageWidth="1169" pageHeight="827" math="0" shadow="0">
      <root>
        <mxCell id="0" />
        <mxCell id="1" parent="0" />
        <mxCell id="ldAZnSqnsFahS3X7F4-J-9" value="" style="rounded=1;whiteSpace=wrap;html=1;fillColor=#A9C4EB;" parent="1" vertex="1">
          <mxGeometry x="100" y="80" width="650" height="541" as="geometry" />
        </mxCell>
        <mxCell id="ldAZnSqnsFahS3X7F4-J-4" style="edgeStyle=orthogonalEdgeStyle;rounded=0;orthogonalLoop=1;jettySize=auto;html=1;" parent="1" source="zA23MoTUsTF4_91t8viU-2" target="ldAZnSqnsFahS3X7F4-J-1" edge="1">
          <mxGeometry relative="1" as="geometry" />
        </mxCell>
        <mxCell id="zA23MoTUsTF4_91t8viU-2" value="configSrv" style="shape=cylinder3;whiteSpace=wrap;html=1;boundedLbl=1;backgroundOutline=1;size=15;fillColor=#D4E1F5;" parent="1" vertex="1">
          <mxGeometry x="650" y="304" width="60" height="80" as="geometry" />
        </mxCell>
        <mxCell id="zA23MoTUsTF4_91t8viU-3" value="pymongo-api" style="rounded=1;whiteSpace=wrap;html=1;" parent="1" vertex="1">
          <mxGeometry x="180" y="314" width="120" height="60" as="geometry" />
        </mxCell>
        <mxCell id="zA23MoTUsTF4_91t8viU-4" style="edgeStyle=orthogonalEdgeStyle;rounded=0;orthogonalLoop=1;jettySize=auto;html=1;exitX=1;exitY=0.5;exitDx=0;exitDy=0;" parent="1" source="zA23MoTUsTF4_91t8viU-3" target="ldAZnSqnsFahS3X7F4-J-1" edge="1">
          <mxGeometry relative="1" as="geometry" />
        </mxCell>
        <mxCell id="ldAZnSqnsFahS3X7F4-J-7" style="edgeStyle=orthogonalEdgeStyle;rounded=0;orthogonalLoop=1;jettySize=auto;html=1;exitX=0.5;exitY=1;exitDx=0;exitDy=0;exitPerimeter=0;" parent="1" source="ldAZnSqnsFahS3X7F4-J-1" target="ldAZnSqnsFahS3X7F4-J-2" edge="1">
          <mxGeometry relative="1" as="geometry" />
        </mxCell>
        <mxCell id="ldAZnSqnsFahS3X7F4-J-8" style="edgeStyle=orthogonalEdgeStyle;rounded=0;orthogonalLoop=1;jettySize=auto;html=1;" parent="1" source="ldAZnSqnsFahS3X7F4-J-1" target="ldAZnSqnsFahS3X7F4-J-3" edge="1">
          <mxGeometry relative="1" as="geometry" />
        </mxCell>
        <mxCell id="ldAZnSqnsFahS3X7F4-J-1" value="mongos-router" style="shape=cylinder3;whiteSpace=wrap;html=1;boundedLbl=1;backgroundOutline=1;size=15;fillColor=#C3ABD0;" parent="1" vertex="1">
          <mxGeometry x="500" y="304" width="60" height="80" as="geometry" />
        </mxCell>
        <mxCell id="ldAZnSqnsFahS3X7F4-J-2" value="master&lt;br&gt;shard1" style="shape=cylinder3;whiteSpace=wrap;html=1;boundedLbl=1;backgroundOutline=1;size=15;fillColor=#666666;" parent="1" vertex="1">
          <mxGeometry x="500" y="430" width="60" height="80" as="geometry" />
        </mxCell>
        <mxCell id="ldAZnSqnsFahS3X7F4-J-5" style="edgeStyle=orthogonalEdgeStyle;rounded=0;orthogonalLoop=1;jettySize=auto;html=1;entryX=0.5;entryY=1;entryDx=0;entryDy=0;entryPerimeter=0;exitX=1;exitY=0.075;exitDx=0;exitDy=0;exitPerimeter=0;" parent="1" source="ldAZnSqnsFahS3X7F4-J-2" target="zA23MoTUsTF4_91t8viU-2" edge="1">
          <mxGeometry relative="1" as="geometry" />
        </mxCell>
        <mxCell id="ldAZnSqnsFahS3X7F4-J-6" style="edgeStyle=orthogonalEdgeStyle;rounded=0;orthogonalLoop=1;jettySize=auto;html=1;entryX=0.5;entryY=0;entryDx=0;entryDy=0;entryPerimeter=0;exitX=0.855;exitY=1;exitDx=0;exitDy=-4.35;exitPerimeter=0;" parent="1" source="ldAZnSqnsFahS3X7F4-J-3" target="zA23MoTUsTF4_91t8viU-2" edge="1">
          <mxGeometry relative="1" as="geometry" />
        </mxCell>
        <mxCell id="ldAZnSqnsFahS3X7F4-J-10" value="&lt;font style=&quot;font-size: 14px;&quot;&gt;Схема 2: Шардирование и реплицирование MongoDb&amp;nbsp;&lt;/font&gt;" style="text;html=1;align=center;verticalAlign=middle;whiteSpace=wrap;rounded=0;fontStyle=1" parent="1" vertex="1">
          <mxGeometry x="120" y="150" width="200" height="30" as="geometry" />
        </mxCell>
        <mxCell id="QaCJhuOAUpOFHOmXAA66-1" value="replica1" style="shape=cylinder3;whiteSpace=wrap;html=1;boundedLbl=1;backgroundOutline=1;size=15;fillColor=#D5E8D4;" vertex="1" parent="1">
          <mxGeometry x="370" y="500" width="60" height="80" as="geometry" />
        </mxCell>
        <mxCell id="QaCJhuOAUpOFHOmXAA66-2" value="replica2" style="shape=cylinder3;whiteSpace=wrap;html=1;boundedLbl=1;backgroundOutline=1;size=15;fillColor=#D5E8D4;" vertex="1" parent="1">
          <mxGeometry x="640" y="500" width="60" height="80" as="geometry" />
        </mxCell>
        <mxCell id="QaCJhuOAUpOFHOmXAA66-3" style="edgeStyle=orthogonalEdgeStyle;rounded=0;orthogonalLoop=1;jettySize=auto;html=1;entryX=0.5;entryY=0;entryDx=0;entryDy=0;entryPerimeter=0;" edge="1" parent="1" source="ldAZnSqnsFahS3X7F4-J-2" target="QaCJhuOAUpOFHOmXAA66-1">
          <mxGeometry relative="1" as="geometry" />
        </mxCell>
        <mxCell id="QaCJhuOAUpOFHOmXAA66-8" value="replication" style="edgeLabel;html=1;align=center;verticalAlign=middle;resizable=0;points=[];" vertex="1" connectable="0" parent="QaCJhuOAUpOFHOmXAA66-3">
          <mxGeometry x="-0.2711" relative="1" as="geometry">
            <mxPoint as="offset" />
          </mxGeometry>
        </mxCell>
        <mxCell id="QaCJhuOAUpOFHOmXAA66-4" style="edgeStyle=orthogonalEdgeStyle;rounded=0;orthogonalLoop=1;jettySize=auto;html=1;entryX=0.5;entryY=0;entryDx=0;entryDy=0;entryPerimeter=0;" edge="1" parent="1" source="ldAZnSqnsFahS3X7F4-J-2" target="QaCJhuOAUpOFHOmXAA66-2">
          <mxGeometry relative="1" as="geometry" />
        </mxCell>
        <mxCell id="QaCJhuOAUpOFHOmXAA66-7" value="replication" style="edgeLabel;html=1;align=center;verticalAlign=middle;resizable=0;points=[];" vertex="1" connectable="0" parent="QaCJhuOAUpOFHOmXAA66-4">
          <mxGeometry x="-0.3833" y="-3" relative="1" as="geometry">
            <mxPoint as="offset" />
          </mxGeometry>
        </mxCell>
        <mxCell id="QaCJhuOAUpOFHOmXAA66-13" value="replica2" style="shape=cylinder3;whiteSpace=wrap;html=1;boundedLbl=1;backgroundOutline=1;size=15;fillColor=#D5E8D4;" vertex="1" parent="1">
          <mxGeometry x="590" y="100" width="60" height="80" as="geometry" />
        </mxCell>
        <mxCell id="QaCJhuOAUpOFHOmXAA66-14" value="replica1" style="shape=cylinder3;whiteSpace=wrap;html=1;boundedLbl=1;backgroundOutline=1;size=15;fillColor=#D5E8D4;" vertex="1" parent="1">
          <mxGeometry x="410" y="90" width="60" height="80" as="geometry" />
        </mxCell>
        <mxCell id="QaCJhuOAUpOFHOmXAA66-15" style="edgeStyle=orthogonalEdgeStyle;rounded=0;orthogonalLoop=1;jettySize=auto;html=1;entryX=0.375;entryY=1.046;entryDx=0;entryDy=0;entryPerimeter=0;" edge="1" parent="1" source="ldAZnSqnsFahS3X7F4-J-3" target="QaCJhuOAUpOFHOmXAA66-14">
          <mxGeometry relative="1" as="geometry" />
        </mxCell>
        <mxCell id="QaCJhuOAUpOFHOmXAA66-18" value="replication" style="edgeLabel;html=1;align=center;verticalAlign=middle;resizable=0;points=[];" vertex="1" connectable="0" parent="QaCJhuOAUpOFHOmXAA66-15">
          <mxGeometry x="-0.0573" y="1" relative="1" as="geometry">
            <mxPoint as="offset" />
          </mxGeometry>
        </mxCell>
        <mxCell id="QaCJhuOAUpOFHOmXAA66-16" style="edgeStyle=orthogonalEdgeStyle;rounded=0;orthogonalLoop=1;jettySize=auto;html=1;entryX=0.5;entryY=1;entryDx=0;entryDy=0;entryPerimeter=0;" edge="1" parent="1" source="ldAZnSqnsFahS3X7F4-J-3" target="QaCJhuOAUpOFHOmXAA66-13">
          <mxGeometry relative="1" as="geometry" />
        </mxCell>
        <mxCell id="QaCJhuOAUpOFHOmXAA66-17" value="replication" style="edgeLabel;html=1;align=center;verticalAlign=middle;resizable=0;points=[];" vertex="1" connectable="0" parent="QaCJhuOAUpOFHOmXAA66-16">
          <mxGeometry x="-0.2556" y="1" relative="1" as="geometry">
            <mxPoint as="offset" />
          </mxGeometry>
        </mxCell>
        <mxCell id="ldAZnSqnsFahS3X7F4-J-3" value="master&lt;br&gt;shard2" style="shape=cylinder3;whiteSpace=wrap;html=1;boundedLbl=1;backgroundOutline=1;size=15;fillColor=#666666;" parent="1" vertex="1">
          <mxGeometry x="500" y="180" width="60" height="80" as="geometry" />
        </mxCell>
      </root>
    </mxGraphModel>
  </diagram>
</mxfile>
